<?xml version="1.0" standalone="no"?>
<!DOCTYPE svg PUBLIC "-//W3C//DTD SVG 20010904//EN"
 "http://www.w3.org/TR/2001/REC-SVG-20010904/DTD/svg10.dtd">
<svg version="1.0" xmlns="http://www.w3.org/2000/svg"
 width="700.000000pt" height="700.000000pt" viewBox="0 0 700.000000 700.000000"
 preserveAspectRatio="xMidYMid meet">
<metadata>
Created by potrace 1.14, written by Peter Selinger 2001-2017
</metadata>
<g transform="translate(0.000000,700.000000) scale(0.100000,-0.100000)"
fill="#000000" stroke="none">
<path d="M1829 6436 c-2 -2 -28 -7 -57 -10 -405 -48 -799 -309 -1013 -671 -69
-115 -137 -275 -153 -358 -3 -12 -12 -53 -22 -92 -17 -65 -18 -181 -20 -1770
-3 -1842 -5 -1763 51 -1960 76 -264 233 -507 440 -680 33 -27 62 -52 65 -55
12 -13 121 -80 191 -119 82 -45 199 -90 295 -115 58 -15 78 -19 159 -34 51 -9
3393 -9 3461 0 468 64 876 363 1078 791 49 104 76 181 108 312 l22 90 3 1695
c1 1053 -2 1718 -8 1755 -5 33 -11 71 -13 85 -18 121 -104 346 -179 465 -20
33 -81 120 -87 125 -3 3 -13 16 -22 29 -25 36 -117 130 -184 187 -167 144
-412 266 -604 301 -14 2 -43 9 -65 16 -29 8 -505 12 -1741 14 -935 2 -1702 1
-1705 -1z m2353 -1288 c63 -29 138 -94 159 -136 49 -98 275 -455 304 -480 19
-17 51 -36 72 -41 24 -7 190 -11 439 -11 457 0 468 -2 529 -73 19 -22 40 -57
45 -76 13 -48 14 -2313 0 -2361 -14 -51 -66 -109 -117 -131 -43 -18 -104 -19
-2106 -19 -1414 0 -2074 3 -2100 11 -52 14 -122 84 -136 134 -15 55 -15 2314
0 2368 13 48 61 103 111 127 37 18 68 19 461 20 383 0 424 2 461 19 45 19 94
70 126 129 11 20 29 51 40 67 11 17 23 36 26 43 25 51 171 285 200 319 40 49
108 92 173 110 35 9 192 12 651 10 l605 -2 57 -27z m-2163 -126 c61 -30 76
-61 79 -168 l4 -94 -282 0 -282 0 4 94 c3 107 18 138 79 168 28 15 62 18 199
18 137 0 171 -3 199 -18z"/>
<path d="M4701 4253 c-47 -24 -72 -62 -78 -114 -14 -144 181 -201 257 -76 69
112 -63 251 -179 190z"/>
<path d="M3330 4185 c-106 -20 -123 -24 -165 -40 -22 -9 -48 -18 -58 -22 -34
-11 -145 -71 -203 -109 -133 -88 -288 -272 -357 -424 -71 -155 -97 -288 -92
-470 5 -177 35 -296 109 -442 125 -244 332 -426 587 -516 120 -42 185 -54 324
-57 177 -5 312 23 473 97 257 117 491 391 558 653 2 6 11 39 20 75 28 103 25
348 -5 464 -105 407 -415 704 -821 787 -78 16 -293 18 -370 4z m378 -295 c349
-99 584 -433 559 -796 -6 -84 -42 -220 -75 -280 -51 -93 -65 -114 -117 -172
-131 -144 -277 -223 -466 -253 -80 -12 -248 -6 -280 12 -10 5 -19 8 -19 5 0
-7 -101 29 -150 54 -412 209 -554 718 -308 1103 111 173 303 304 503 343 95
18 259 11 353 -16z"/>
</g>
</svg>
